<svg id="visual" viewBox="0 0 900 600" width="900" height="600" xmlns="http://www.w3.org/2000/svg" xmlns:xlink="http://www.w3.org/1999/xlink" version="1.1"><rect x="0" y="0" width="900" height="600" fill="#1B1B1E"></rect><path d="M392 0L478 0L478 43L380 43L380 86L319 86L319 129L337 129L337 171L371 171L371 214L390 214L390 257L430 257L430 300L466 300L466 343L481 343L481 386L386 386L386 429L416 429L416 471L311 471L311 514L376 514L376 557L323 557L323 600L0 600L0 557L0 557L0 514L0 514L0 471L0 471L0 429L0 429L0 386L0 386L0 343L0 343L0 300L0 300L0 257L0 257L0 214L0 214L0 171L0 171L0 129L0 129L0 86L0 86L0 43L0 43L0 0L0 0Z" fill="#212125"></path><path d="M282 0L283 0L283 43L359 43L359 86L364 86L364 129L293 129L293 171L330 171L330 214L282 214L282 257L313 257L313 300L333 300L333 343L298 343L298 386L394 386L394 429L380 429L380 471L352 471L352 514L377 514L377 557L304 557L304 600L0 600L0 557L0 557L0 514L0 514L0 471L0 471L0 429L0 429L0 386L0 386L0 343L0 343L0 300L0 300L0 257L0 257L0 214L0 214L0 171L0 171L0 129L0 129L0 86L0 86L0 43L0 43L0 0L0 0Z" fill="#242429"></path><path d="M233 0L267 0L267 43L268 43L268 86L226 86L226 129L181 129L181 171L238 171L238 214L310 214L310 257L238 257L238 300L222 300L222 343L270 343L270 386L195 386L195 429L175 429L175 471L199 471L199 514L235 514L235 557L289 557L289 600L0 600L0 557L0 557L0 514L0 514L0 471L0 471L0 429L0 429L0 386L0 386L0 343L0 343L0 300L0 300L0 257L0 257L0 214L0 214L0 171L0 171L0 129L0 129L0 86L0 86L0 43L0 43L0 0L0 0Z" fill="#28282d"></path><path d="M172 0L166 0L166 43L141 43L141 86L162 86L162 129L151 129L151 171L174 171L174 214L219 214L219 257L169 257L169 300L171 300L171 343L132 343L132 386L194 386L194 429L224 429L224 471L167 471L167 514L110 514L110 557L219 557L219 600L0 600L0 557L0 557L0 514L0 514L0 471L0 471L0 429L0 429L0 386L0 386L0 343L0 343L0 300L0 300L0 257L0 257L0 214L0 214L0 171L0 171L0 129L0 129L0 86L0 86L0 43L0 43L0 0L0 0Z" fill="#2c2c31"></path><path d="M72 0L66 0L66 43L50 43L50 86L83 86L83 129L63 129L63 171L141 171L141 214L125 214L125 257L42 257L42 300L125 300L125 343L62 343L62 386L41 386L41 429L89 429L89 471L67 471L67 514L137 514L137 557L63 557L63 600L0 600L0 557L0 557L0 514L0 514L0 471L0 471L0 429L0 429L0 386L0 386L0 343L0 343L0 300L0 300L0 257L0 257L0 214L0 214L0 171L0 171L0 129L0 129L0 86L0 86L0 43L0 43L0 0L0 0Z" fill="#303036"></path></svg>