<?xml version="1.0" encoding="UTF-8" standalone="no"?><!DOCTYPE svg PUBLIC "-//W3C//DTD SVG 1.1//EN" "http://www.w3.org/Graphics/SVG/1.1/DTD/svg11.dtd"><svg width="100%" height="100%" viewBox="0 0 12 12" version="1.1" xmlns="http://www.w3.org/2000/svg" xmlns:xlink="http://www.w3.org/1999/xlink" xml:space="preserve" xmlns:serif="http://www.serif.com/" style="fill-rule:evenodd;clip-rule:evenodd;stroke-linejoin:round;stroke-miterlimit:2;"><path d="M12,0.36c0,-0.198 -0.162,-0.36 -0.36,-0.36l-11.28,-0c-0.198,-0 -0.36,0.162 -0.36,0.36l-0,11.28c-0,0.198 0.162,0.36 0.36,0.36l11.28,0c0.198,0 0.36,-0.162 0.36,-0.36l0,-11.28Z" style="fill:#1c2831;"/><path d="M8.924,8.88l0,0.776l-0.659,-0.428l-1.75,-3.29c0.241,-0.076 0.462,-0.2 0.652,-0.366m-0.071,-1.4c0,0.602 -0.495,1.096 -1.096,1.096c-0.053,0.005 -0.107,0.005 -0.16,0l-2.105,3.96l-0.659,0.428l-0,-0.776l2.116,-3.976c-0.18,-0.201 -0.28,-0.462 -0.28,-0.732c0,-0.598 0.49,-1.09 1.088,-1.096l0,-0.732c0.2,0 0.366,0.166 0.366,0.366l-0,0.432c0.436,0.153 0.729,0.569 0.73,1.03m-0.73,0c-0,-0.2 -0.166,-0.366 -0.366,-0.366c-0.2,0 -0.366,0.166 -0.366,0.366c0,0.201 0.166,0.366 0.366,0.366c0.2,-0 0.366,-0.165 0.366,-0.366m-3.21,1.096l0.65,0.659l-0.526,1.009l-0.899,-0.899m3.619,2.068l-0.549,-0.552l-0.547,1.005l1.096,1.098l1.096,-1.098l-0.537,-1.012m2.285,-2.278l-0.65,0.659l0.547,1.009l0.878,-0.899l-0.775,-0.769Z" style="fill:#c1a75e;fill-rule:nonzero;"/></svg>